<mxfile host="app.diagrams.net" modified="2024-05-28T19:05:22.176Z" agent="Mozilla/5.0 (Windows NT 10.0; Win64; x64) AppleWebKit/537.36 (KHTML, like Gecko) Chrome/122.0.0.0 YaBrowser/24.4.0.0 Safari/537.36" etag="ti3Zg8wtNCL4ftH8dn9i" version="24.4.9" type="device">
  <diagram name="Страница — 1" id="cuzvewRBdpvY9vd-9Z5F">
    <mxGraphModel dx="2458" dy="2100" grid="1" gridSize="10" guides="1" tooltips="1" connect="1" arrows="1" fold="1" page="1" pageScale="1" pageWidth="827" pageHeight="1169" background="#000000" math="0" shadow="0">
      <root>
        <mxCell id="0" />
        <mxCell id="1" parent="0" />
        <mxCell id="1jTBWW4NoK1_gVK3uimr-6" value="" style="group;fontColor=#CCCCFF;" vertex="1" connectable="0" parent="1">
          <mxGeometry x="-320" y="40" width="230" height="180" as="geometry" />
        </mxCell>
        <mxCell id="1jTBWW4NoK1_gVK3uimr-2" value="&lt;font&gt;#description: string&lt;/font&gt;&lt;div&gt;&lt;font&gt;#name: string&lt;/font&gt;&lt;/div&gt;&lt;div&gt;&lt;font&gt;#price: double&lt;/font&gt;&lt;/div&gt;" style="rounded=0;whiteSpace=wrap;html=1;fillColor=#0000FF;strokeColor=#9999FF;align=left;fontColor=#CCCCFF;" vertex="1" parent="1jTBWW4NoK1_gVK3uimr-6">
          <mxGeometry y="30" width="230" height="60" as="geometry" />
        </mxCell>
        <mxCell id="1jTBWW4NoK1_gVK3uimr-4" value="&lt;font&gt;+Description(): string&lt;/font&gt;&lt;div&gt;&lt;font&gt;+Name(): string&lt;/font&gt;&lt;/div&gt;&lt;div&gt;&lt;font&gt;+Price(): double&lt;/font&gt;&lt;/div&gt;&lt;div&gt;&lt;font&gt;+Menu(name: string, description: string, price: double)&lt;/font&gt;&lt;/div&gt;&lt;div&gt;&lt;font&gt;+Tostring(): string&lt;/font&gt;&lt;/div&gt;" style="rounded=0;whiteSpace=wrap;html=1;fillColor=#0000FF;strokeColor=#9999FF;align=left;fontColor=#CCCCFF;" vertex="1" parent="1jTBWW4NoK1_gVK3uimr-6">
          <mxGeometry y="90" width="230" height="90" as="geometry" />
        </mxCell>
        <mxCell id="1jTBWW4NoK1_gVK3uimr-5" value="&lt;i style=&quot;&quot;&gt;&lt;font&gt;Menu&lt;/font&gt;&lt;/i&gt;" style="rounded=0;whiteSpace=wrap;html=1;fillColor=#3333FF;strokeColor=#9999FF;align=center;fontStyle=1;fontColor=#CCCCFF;" vertex="1" parent="1jTBWW4NoK1_gVK3uimr-6">
          <mxGeometry width="230" height="30" as="geometry" />
        </mxCell>
        <mxCell id="1jTBWW4NoK1_gVK3uimr-25" value="" style="group;fontColor=#CCCCFF;" vertex="1" connectable="0" parent="1">
          <mxGeometry x="-470" y="300" width="230" height="170" as="geometry" />
        </mxCell>
        <mxCell id="1jTBWW4NoK1_gVK3uimr-20" value="&lt;font&gt;#flavor: string&lt;/font&gt;" style="rounded=0;whiteSpace=wrap;html=1;fillColor=#0000FF;strokeColor=#9999FF;align=left;container=0;fontColor=#CCCCFF;" vertex="1" parent="1jTBWW4NoK1_gVK3uimr-25">
          <mxGeometry y="39.054054054054056" width="230" height="52.83783783783784" as="geometry" />
        </mxCell>
        <mxCell id="1jTBWW4NoK1_gVK3uimr-21" value="&lt;font&gt;+Flavor(): string&lt;/font&gt;&lt;div&gt;&lt;span style=&quot;background-color: initial;&quot;&gt;+Desert(name: string, description: string, price: double, flavor: string)&lt;/span&gt;&lt;div&gt;&lt;font&gt;+Tostring(): string&lt;/font&gt;&lt;/div&gt;&lt;/div&gt;" style="rounded=0;whiteSpace=wrap;html=1;fillColor=#0000FF;strokeColor=#9999FF;align=left;container=0;fontColor=#CCCCFF;" vertex="1" parent="1jTBWW4NoK1_gVK3uimr-25">
          <mxGeometry y="91.8918918918919" width="230" height="78.10810810810811" as="geometry" />
        </mxCell>
        <mxCell id="1jTBWW4NoK1_gVK3uimr-22" value="&lt;font&gt;Dessert&lt;/font&gt;" style="rounded=0;whiteSpace=wrap;html=1;fillColor=#3333FF;strokeColor=#9999FF;align=center;fontStyle=1;container=0;fontColor=#CCCCFF;" vertex="1" parent="1jTBWW4NoK1_gVK3uimr-25">
          <mxGeometry width="230" height="39.054054054054056" as="geometry" />
        </mxCell>
        <mxCell id="1jTBWW4NoK1_gVK3uimr-24" style="edgeStyle=orthogonalEdgeStyle;rounded=0;orthogonalLoop=1;jettySize=auto;html=1;exitX=0.5;exitY=1;exitDx=0;exitDy=0;fontColor=#CCCCFF;" edge="1" parent="1jTBWW4NoK1_gVK3uimr-25" source="1jTBWW4NoK1_gVK3uimr-20" target="1jTBWW4NoK1_gVK3uimr-20">
          <mxGeometry relative="1" as="geometry" />
        </mxCell>
        <mxCell id="1jTBWW4NoK1_gVK3uimr-27" value="" style="group;fontColor=#CCCCFF;" vertex="1" connectable="0" parent="1">
          <mxGeometry x="-320" y="510" width="213" height="170" as="geometry" />
        </mxCell>
        <mxCell id="1jTBWW4NoK1_gVK3uimr-8" value="&lt;font&gt;#ingredient: string&lt;/font&gt;" style="rounded=0;whiteSpace=wrap;html=1;fillColor=#0000FF;strokeColor=#9999FF;align=left;fontColor=#CCCCFF;" vertex="1" parent="1jTBWW4NoK1_gVK3uimr-27">
          <mxGeometry y="37.532467532467535" width="213" height="57.40259740259741" as="geometry" />
        </mxCell>
        <mxCell id="1jTBWW4NoK1_gVK3uimr-9" value="&lt;font&gt;+Ingredient(): string&lt;/font&gt;&lt;div&gt;&lt;font&gt;+Appetizer&lt;/font&gt;&lt;span style=&quot;background-color: initial;&quot;&gt;(name: string, description: string, price: double, flavor: string)&lt;/span&gt;&lt;/div&gt;&lt;div&gt;&lt;font&gt;+ToString(): string&lt;/font&gt;&lt;/div&gt;" style="rounded=0;whiteSpace=wrap;html=1;fillColor=#0000FF;strokeColor=#9999FF;align=left;fontColor=#CCCCFF;" vertex="1" parent="1jTBWW4NoK1_gVK3uimr-27">
          <mxGeometry y="81.68831168831169" width="213" height="88.31168831168831" as="geometry" />
        </mxCell>
        <mxCell id="1jTBWW4NoK1_gVK3uimr-10" value="&lt;font&gt;&lt;b&gt;Appetizer&lt;/b&gt;&lt;/font&gt;" style="rounded=0;whiteSpace=wrap;html=1;fillColor=#3333FF;strokeColor=#9999FF;align=center;fontColor=#CCCCFF;" vertex="1" parent="1jTBWW4NoK1_gVK3uimr-27">
          <mxGeometry width="213" height="37.532467532467535" as="geometry" />
        </mxCell>
        <mxCell id="1jTBWW4NoK1_gVK3uimr-29" value="" style="group;fontColor=#CCCCFF;" vertex="1" connectable="0" parent="1">
          <mxGeometry x="-200" y="290" width="220" height="170" as="geometry" />
        </mxCell>
        <mxCell id="1jTBWW4NoK1_gVK3uimr-16" value="&lt;font&gt;#cookingTime: int&lt;/font&gt;" style="rounded=0;whiteSpace=wrap;html=1;fillColor=#0000FF;strokeColor=#9999FF;align=left;container=0;fontColor=#CCCCFF;" vertex="1" parent="1jTBWW4NoK1_gVK3uimr-29">
          <mxGeometry y="32" width="220" height="38" as="geometry" />
        </mxCell>
        <mxCell id="1jTBWW4NoK1_gVK3uimr-28" style="edgeStyle=orthogonalEdgeStyle;rounded=0;orthogonalLoop=1;jettySize=auto;html=1;exitX=0.5;exitY=1;exitDx=0;exitDy=0;fontColor=#CCCCFF;" edge="1" parent="1jTBWW4NoK1_gVK3uimr-29" source="1jTBWW4NoK1_gVK3uimr-16" target="1jTBWW4NoK1_gVK3uimr-16">
          <mxGeometry relative="1" as="geometry" />
        </mxCell>
        <mxCell id="1jTBWW4NoK1_gVK3uimr-17" value="&lt;font&gt;+CookingTime(): int&lt;/font&gt;&lt;div&gt;&lt;font&gt;+MainCourse&lt;/font&gt;&lt;span style=&quot;background-color: initial;&quot;&gt;(name: string, description: string, price: double, cookingTime: int)&lt;/span&gt;&lt;/div&gt;&lt;div&gt;&lt;font&gt;+ToString(): string&lt;/font&gt;&lt;/div&gt;" style="rounded=0;whiteSpace=wrap;html=1;fillColor=#0000FF;strokeColor=#9999FF;align=left;container=0;fontColor=#CCCCFF;" vertex="1" parent="1jTBWW4NoK1_gVK3uimr-29">
          <mxGeometry y="70" width="220" height="100" as="geometry" />
        </mxCell>
        <mxCell id="1jTBWW4NoK1_gVK3uimr-18" value="&lt;font&gt;&lt;span style=&quot;font-style: normal;&quot;&gt;MainCourse&lt;/span&gt;&lt;/font&gt;" style="rounded=0;whiteSpace=wrap;html=1;fillColor=#3333FF;strokeColor=#9999FF;align=center;fontStyle=3;container=0;fontColor=#CCCCFF;" vertex="1" parent="1jTBWW4NoK1_gVK3uimr-29">
          <mxGeometry width="220" height="32" as="geometry" />
        </mxCell>
        <mxCell id="1jTBWW4NoK1_gVK3uimr-31" value="" style="group;fontColor=#CCCCFF;" vertex="1" connectable="0" parent="1">
          <mxGeometry x="-90" y="490" width="210" height="170" as="geometry" />
        </mxCell>
        <mxCell id="1jTBWW4NoK1_gVK3uimr-12" value="&lt;font&gt;#volume: int&lt;/font&gt;" style="rounded=0;whiteSpace=wrap;html=1;fillColor=#0000FF;strokeColor=#9999FF;align=left;container=0;fontColor=#CCCCFF;" vertex="1" parent="1jTBWW4NoK1_gVK3uimr-31">
          <mxGeometry y="28.333333333333332" width="210.00000000000003" height="56.666666666666664" as="geometry" />
        </mxCell>
        <mxCell id="1jTBWW4NoK1_gVK3uimr-13" value="&lt;font&gt;+Volume(): int&lt;/font&gt;&lt;div&gt;&lt;font&gt;+Beverage(&lt;/font&gt;&lt;span style=&quot;background-color: initial;&quot;&gt;name: string, description: string, price: double, volume: int&lt;/span&gt;&lt;span style=&quot;background-color: initial;&quot;&gt;)&lt;/span&gt;&lt;/div&gt;&lt;div&gt;&lt;font&gt;+ToString():string&lt;/font&gt;&lt;/div&gt;" style="rounded=0;whiteSpace=wrap;html=1;fillColor=#0000FF;strokeColor=#9999FF;align=left;container=0;fontColor=#CCCCFF;" vertex="1" parent="1jTBWW4NoK1_gVK3uimr-31">
          <mxGeometry y="85" width="210.00000000000003" height="85" as="geometry" />
        </mxCell>
        <mxCell id="1jTBWW4NoK1_gVK3uimr-14" value="&lt;font&gt;&lt;b&gt;Beverage&lt;/b&gt;&lt;/font&gt;" style="rounded=0;whiteSpace=wrap;html=1;fillColor=#3333FF;strokeColor=#9999FF;align=center;container=0;fontColor=#CCCCFF;" vertex="1" parent="1jTBWW4NoK1_gVK3uimr-31">
          <mxGeometry width="210.00000000000003" height="28.333333333333332" as="geometry" />
        </mxCell>
        <mxCell id="1jTBWW4NoK1_gVK3uimr-51" style="edgeStyle=orthogonalEdgeStyle;rounded=0;orthogonalLoop=1;jettySize=auto;html=1;exitX=0.5;exitY=0;exitDx=0;exitDy=0;entryX=0.082;entryY=0.994;entryDx=0;entryDy=0;strokeColor=#CCCCFF;entryPerimeter=0;endArrow=block;endFill=0;fontColor=#CCCCFF;" edge="1" parent="1" source="1jTBWW4NoK1_gVK3uimr-22" target="1jTBWW4NoK1_gVK3uimr-4">
          <mxGeometry relative="1" as="geometry" />
        </mxCell>
        <mxCell id="1jTBWW4NoK1_gVK3uimr-52" style="edgeStyle=orthogonalEdgeStyle;rounded=0;orthogonalLoop=1;jettySize=auto;html=1;exitX=0.5;exitY=0;exitDx=0;exitDy=0;entryX=0.25;entryY=1;entryDx=0;entryDy=0;strokeColor=#CCCCFF;endArrow=block;endFill=0;fontColor=#CCCCFF;" edge="1" parent="1" source="1jTBWW4NoK1_gVK3uimr-10" target="1jTBWW4NoK1_gVK3uimr-4">
          <mxGeometry relative="1" as="geometry">
            <Array as="points">
              <mxPoint x="-290" y="290" />
              <mxPoint x="-290" y="255" />
              <mxPoint x="-263" y="255" />
            </Array>
          </mxGeometry>
        </mxCell>
        <mxCell id="1jTBWW4NoK1_gVK3uimr-53" style="edgeStyle=orthogonalEdgeStyle;rounded=0;orthogonalLoop=1;jettySize=auto;html=1;exitX=0.5;exitY=0;exitDx=0;exitDy=0;strokeColor=#CCCCFF;endArrow=block;endFill=0;fontColor=#CCCCFF;" edge="1" parent="1" source="1jTBWW4NoK1_gVK3uimr-18">
          <mxGeometry relative="1" as="geometry">
            <mxPoint x="-180" y="220" as="targetPoint" />
            <Array as="points">
              <mxPoint x="-130" y="290" />
              <mxPoint x="-130" y="255" />
              <mxPoint x="-180" y="255" />
            </Array>
          </mxGeometry>
        </mxCell>
        <mxCell id="1jTBWW4NoK1_gVK3uimr-54" style="edgeStyle=orthogonalEdgeStyle;rounded=0;orthogonalLoop=1;jettySize=auto;html=1;entryX=0.871;entryY=1.015;entryDx=0;entryDy=0;entryPerimeter=0;strokeColor=#CCCCFF;endArrow=block;endFill=0;fontColor=#CCCCFF;" edge="1" parent="1" target="1jTBWW4NoK1_gVK3uimr-4">
          <mxGeometry relative="1" as="geometry">
            <mxPoint x="-120" y="230" as="targetPoint" />
            <mxPoint x="40" y="490" as="sourcePoint" />
            <Array as="points">
              <mxPoint x="40" y="490" />
              <mxPoint x="40" y="270" />
              <mxPoint x="-120" y="270" />
            </Array>
          </mxGeometry>
        </mxCell>
        <mxCell id="1jTBWW4NoK1_gVK3uimr-87" value="" style="group" vertex="1" connectable="0" parent="1">
          <mxGeometry x="-50" y="-30" width="390" height="280" as="geometry" />
        </mxCell>
        <mxCell id="1jTBWW4NoK1_gVK3uimr-82" style="edgeStyle=orthogonalEdgeStyle;rounded=0;orthogonalLoop=1;jettySize=auto;html=1;exitX=0.866;exitY=0.023;exitDx=0;exitDy=0;entryX=0.435;entryY=1.001;entryDx=0;entryDy=0;strokeColor=#CCCCFF;endArrow=block;endFill=0;exitPerimeter=0;entryPerimeter=0;" edge="1" parent="1jTBWW4NoK1_gVK3uimr-87">
          <mxGeometry relative="1" as="geometry">
            <mxPoint x="155.88" y="160.5293506493506" as="sourcePoint" />
            <mxPoint x="186.9999999999999" y="129.99799999999993" as="targetPoint" />
            <Array as="points">
              <mxPoint x="156" y="150" />
              <mxPoint x="187" y="150" />
            </Array>
          </mxGeometry>
        </mxCell>
        <mxCell id="1jTBWW4NoK1_gVK3uimr-86" style="edgeStyle=orthogonalEdgeStyle;rounded=0;orthogonalLoop=1;jettySize=auto;html=1;entryX=0.5;entryY=1;entryDx=0;entryDy=0;strokeColor=#CCCCFF;endArrow=block;endFill=0;exitX=0.165;exitY=-0.012;exitDx=0;exitDy=0;exitPerimeter=0;" edge="1" parent="1jTBWW4NoK1_gVK3uimr-87" source="1jTBWW4NoK1_gVK3uimr-72" target="1jTBWW4NoK1_gVK3uimr-57">
          <mxGeometry relative="1" as="geometry">
            <mxPoint x="230" y="160" as="sourcePoint" />
            <Array as="points">
              <mxPoint x="240" y="150" />
              <mxPoint x="200" y="150" />
            </Array>
          </mxGeometry>
        </mxCell>
        <mxCell id="1jTBWW4NoK1_gVK3uimr-69" value="" style="rounded=0;whiteSpace=wrap;html=1;fillColor=#0000FF;strokeColor=#9999FF;align=left;container=0;fontColor=#CCCCFF;" vertex="1" parent="1jTBWW4NoK1_gVK3uimr-87">
          <mxGeometry x="210" y="182.58823529411768" width="180" height="26.823529411764707" as="geometry" />
        </mxCell>
        <mxCell id="1jTBWW4NoK1_gVK3uimr-70" style="edgeStyle=orthogonalEdgeStyle;rounded=0;orthogonalLoop=1;jettySize=auto;html=1;exitX=0.5;exitY=1;exitDx=0;exitDy=0;fontColor=#CCCCFF;" edge="1" parent="1jTBWW4NoK1_gVK3uimr-87" source="1jTBWW4NoK1_gVK3uimr-69" target="1jTBWW4NoK1_gVK3uimr-69">
          <mxGeometry relative="1" as="geometry" />
        </mxCell>
        <mxCell id="1jTBWW4NoK1_gVK3uimr-71" value="+Read&amp;lt;T&amp;gt;(path: string): void&lt;div&gt;+Write&amp;lt;T&amp;gt;(obj: T, path: string): T&lt;/div&gt;" style="rounded=0;whiteSpace=wrap;html=1;fillColor=#0000FF;strokeColor=#9999FF;align=left;container=0;fontColor=#CCCCFF;" vertex="1" parent="1jTBWW4NoK1_gVK3uimr-87">
          <mxGeometry x="210" y="209.41176470588232" width="180" height="70.58823529411765" as="geometry" />
        </mxCell>
        <mxCell id="1jTBWW4NoK1_gVK3uimr-72" value="&lt;span style=&quot;font-style: normal;&quot;&gt;MyXmlSerializer&lt;/span&gt;" style="rounded=0;whiteSpace=wrap;html=1;fillColor=#3333FF;strokeColor=#9999FF;align=center;fontStyle=3;container=0;fontColor=#CCCCFF;" vertex="1" parent="1jTBWW4NoK1_gVK3uimr-87">
          <mxGeometry x="210" y="160" width="180" height="22.58823529411765" as="geometry" />
        </mxCell>
        <mxCell id="1jTBWW4NoK1_gVK3uimr-56" value="" style="rounded=0;whiteSpace=wrap;html=1;fillColor=#0000FF;strokeColor=#9999FF;align=left;fontColor=#CCCCFF;container=0;" vertex="1" parent="1jTBWW4NoK1_gVK3uimr-87">
          <mxGeometry x="100" y="26" width="200" height="26" as="geometry" />
        </mxCell>
        <mxCell id="1jTBWW4NoK1_gVK3uimr-57" value="+Read&amp;lt;T&amp;gt;(path: string)&lt;div&gt;+Write&amp;lt;T&amp;gt;(obj: T, path: string)&lt;/div&gt;" style="rounded=0;whiteSpace=wrap;html=1;fillColor=#0000FF;strokeColor=#9999FF;align=left;fontColor=#CCCCFF;container=0;" vertex="1" parent="1jTBWW4NoK1_gVK3uimr-87">
          <mxGeometry x="100" y="52" width="200" height="78" as="geometry" />
        </mxCell>
        <mxCell id="1jTBWW4NoK1_gVK3uimr-58" value="MySerializer" style="rounded=0;whiteSpace=wrap;html=1;fillColor=#3333FF;strokeColor=#9999FF;align=center;fontStyle=1;fontColor=#CCCCFF;container=0;" vertex="1" parent="1jTBWW4NoK1_gVK3uimr-87">
          <mxGeometry x="100" width="200" height="26" as="geometry" />
        </mxCell>
        <mxCell id="1jTBWW4NoK1_gVK3uimr-65" value="" style="rounded=0;whiteSpace=wrap;html=1;fillColor=#0000FF;strokeColor=#9999FF;align=left;fontColor=#CCCCFF;container=0;" vertex="1" parent="1jTBWW4NoK1_gVK3uimr-87">
          <mxGeometry y="186.49350649350652" width="180" height="40.519480519480524" as="geometry" />
        </mxCell>
        <mxCell id="1jTBWW4NoK1_gVK3uimr-66" value="+Read&amp;lt;T&amp;gt;(path: string): void&lt;div&gt;+Write&amp;lt;T&amp;gt;(obj: T, path: string): T&lt;/div&gt;" style="rounded=0;whiteSpace=wrap;html=1;fillColor=#0000FF;strokeColor=#9999FF;align=left;fontColor=#CCCCFF;container=0;" vertex="1" parent="1jTBWW4NoK1_gVK3uimr-87">
          <mxGeometry y="217.66233766233768" width="180" height="62.337662337662344" as="geometry" />
        </mxCell>
        <mxCell id="1jTBWW4NoK1_gVK3uimr-67" value="&lt;b&gt;MyJsonSerializer&lt;/b&gt;" style="rounded=0;whiteSpace=wrap;html=1;fillColor=#3333FF;strokeColor=#9999FF;align=center;fontColor=#CCCCFF;container=0;" vertex="1" parent="1jTBWW4NoK1_gVK3uimr-87">
          <mxGeometry y="160" width="180" height="26.493506493506498" as="geometry" />
        </mxCell>
        <mxCell id="1jTBWW4NoK1_gVK3uimr-96" value="" style="group" vertex="1" connectable="0" parent="1">
          <mxGeometry x="180" y="350" width="230" height="325" as="geometry" />
        </mxCell>
        <mxCell id="1jTBWW4NoK1_gVK3uimr-93" value="-menuItems: List&amp;lt;menu&amp;gt;&lt;div&gt;#order: Order&lt;/div&gt;&lt;div&gt;#money: double&lt;/div&gt;" style="rounded=0;whiteSpace=wrap;html=1;fillColor=#0000FF;strokeColor=#9999FF;align=left;fontColor=#CCCCFF;container=0;" vertex="1" parent="1jTBWW4NoK1_gVK3uimr-96">
          <mxGeometry y="30" width="230" height="60" as="geometry" />
        </mxCell>
        <mxCell id="1jTBWW4NoK1_gVK3uimr-94" value="+Money(): double&lt;div&gt;+Order(): Order&lt;/div&gt;&lt;div&gt;+AddToOrder(item: Menu, double budget, menuItems: List &amp;lt;Menu&amp;gt;): void&lt;/div&gt;&lt;div&gt;+Customer(name: string, surname: string, age: int, menuItems: List&amp;lt;Menu&amp;gt;)&lt;/div&gt;&lt;div&gt;+GetOrderItems(): List &amp;lt;Order.MenuItemXml&amp;gt;&lt;/div&gt;&lt;div&gt;+IPayable.Pay(menuItems: List&amp;lt;Menu&lt;span style=&quot;background-color: initial;&quot;&gt;&amp;gt;): void&lt;/span&gt;&lt;/div&gt;&lt;div&gt;&lt;span style=&quot;background-color: initial;&quot;&gt;+Pay(menuItems List&amp;lt;Menu&amp;gt;): void&lt;/span&gt;&lt;/div&gt;&lt;div&gt;+SetOrder(newOrder: Order): void&lt;/div&gt;&lt;div&gt;+ToString(): string&lt;/div&gt;&lt;div&gt;&lt;br&gt;&lt;/div&gt;" style="rounded=0;whiteSpace=wrap;html=1;fillColor=#0000FF;strokeColor=#9999FF;align=left;fontColor=#CCCCFF;container=0;" vertex="1" parent="1jTBWW4NoK1_gVK3uimr-96">
          <mxGeometry y="90" width="230" height="235" as="geometry" />
        </mxCell>
        <mxCell id="1jTBWW4NoK1_gVK3uimr-95" value="Сustomer" style="rounded=0;whiteSpace=wrap;html=1;fillColor=#3333FF;strokeColor=#9999FF;align=center;fontStyle=1;fontColor=#CCCCFF;container=0;" vertex="1" parent="1jTBWW4NoK1_gVK3uimr-96">
          <mxGeometry width="230" height="30" as="geometry" />
        </mxCell>
        <mxCell id="1jTBWW4NoK1_gVK3uimr-99" value="" style="group" vertex="1" connectable="0" parent="1">
          <mxGeometry x="400" y="70" width="230" height="180" as="geometry" />
        </mxCell>
        <mxCell id="1jTBWW4NoK1_gVK3uimr-89" value="&lt;font&gt;#surname: string&lt;/font&gt;&lt;div&gt;&lt;font&gt;#name: string&lt;/font&gt;&lt;/div&gt;&lt;div&gt;&lt;font&gt;#age: int&lt;/font&gt;&lt;/div&gt;" style="rounded=0;whiteSpace=wrap;html=1;fillColor=#0000FF;strokeColor=#9999FF;align=left;fontColor=#CCCCFF;container=0;" vertex="1" parent="1jTBWW4NoK1_gVK3uimr-99">
          <mxGeometry y="30" width="230" height="60" as="geometry" />
        </mxCell>
        <mxCell id="1jTBWW4NoK1_gVK3uimr-90" value="&lt;font&gt;+Age&lt;/font&gt;&lt;span style=&quot;background-color: initial;&quot;&gt;(): int&lt;/span&gt;&lt;div&gt;&lt;div&gt;&lt;font&gt;+Name(): string&lt;/font&gt;&lt;/div&gt;&lt;div&gt;&lt;font&gt;+Surname(): string&lt;/font&gt;&lt;/div&gt;&lt;div&gt;&lt;font&gt;+Person(name: string, surname: string, age: int)&lt;/font&gt;&lt;/div&gt;&lt;div&gt;&lt;font&gt;+Tostring(): string&lt;/font&gt;&lt;/div&gt;&lt;/div&gt;" style="rounded=0;whiteSpace=wrap;html=1;fillColor=#0000FF;strokeColor=#9999FF;align=left;fontColor=#CCCCFF;container=0;" vertex="1" parent="1jTBWW4NoK1_gVK3uimr-99">
          <mxGeometry y="90" width="230" height="90" as="geometry" />
        </mxCell>
        <mxCell id="1jTBWW4NoK1_gVK3uimr-91" value="Person" style="rounded=0;whiteSpace=wrap;html=1;fillColor=#3333FF;strokeColor=#9999FF;align=center;fontStyle=1;fontColor=#CCCCFF;container=0;" vertex="1" parent="1jTBWW4NoK1_gVK3uimr-99">
          <mxGeometry width="230" height="30" as="geometry" />
        </mxCell>
        <mxCell id="1jTBWW4NoK1_gVK3uimr-106" style="edgeStyle=orthogonalEdgeStyle;rounded=0;orthogonalLoop=1;jettySize=auto;html=1;exitX=0.75;exitY=0;exitDx=0;exitDy=0;entryX=0.177;entryY=0.98;entryDx=0;entryDy=0;entryPerimeter=0;strokeColor=#CCCCFF;endArrow=block;endFill=0;" edge="1" parent="1" source="1jTBWW4NoK1_gVK3uimr-95" target="1jTBWW4NoK1_gVK3uimr-90">
          <mxGeometry relative="1" as="geometry" />
        </mxCell>
        <mxCell id="1jTBWW4NoK1_gVK3uimr-108" value="" style="group" vertex="1" connectable="0" parent="1">
          <mxGeometry x="460" y="320" width="230" height="130" as="geometry" />
        </mxCell>
        <mxCell id="1jTBWW4NoK1_gVK3uimr-102" value="" style="rounded=0;whiteSpace=wrap;html=1;fillColor=#0000FF;strokeColor=#9999FF;align=left;fontColor=#CCCCFF;container=0;" vertex="1" parent="1jTBWW4NoK1_gVK3uimr-108">
          <mxGeometry y="40" width="230" height="50" as="geometry" />
        </mxCell>
        <mxCell id="1jTBWW4NoK1_gVK3uimr-103" value="+Pay(menuItems List&amp;lt;Menu&amp;gt;): void" style="rounded=0;whiteSpace=wrap;html=1;fillColor=#0000FF;strokeColor=#9999FF;align=left;fontColor=#CCCCFF;container=0;" vertex="1" parent="1jTBWW4NoK1_gVK3uimr-108">
          <mxGeometry y="70" width="230" height="60" as="geometry" />
        </mxCell>
        <mxCell id="1jTBWW4NoK1_gVK3uimr-104" value="&amp;lt;&amp;lt;&lt;i style=&quot;font-weight: normal;&quot;&gt;interface&lt;/i&gt;&amp;gt;&amp;gt;&lt;div&gt;IPayable&lt;/div&gt;" style="rounded=0;whiteSpace=wrap;html=1;fillColor=#3333FF;strokeColor=#9999FF;align=center;fontStyle=1;fontColor=#CCCCFF;container=0;" vertex="1" parent="1jTBWW4NoK1_gVK3uimr-108">
          <mxGeometry width="230" height="40" as="geometry" />
        </mxCell>
        <mxCell id="1jTBWW4NoK1_gVK3uimr-109" style="edgeStyle=orthogonalEdgeStyle;rounded=0;orthogonalLoop=1;jettySize=auto;html=1;exitX=1;exitY=0.25;exitDx=0;exitDy=0;entryX=0;entryY=0;entryDx=0;entryDy=0;strokeColor=#CCCCFF;endArrow=block;endFill=0;dashed=1;" edge="1" parent="1" source="1jTBWW4NoK1_gVK3uimr-94" target="1jTBWW4NoK1_gVK3uimr-103">
          <mxGeometry relative="1" as="geometry">
            <Array as="points">
              <mxPoint x="440" y="499" />
              <mxPoint x="440" y="390" />
            </Array>
          </mxGeometry>
        </mxCell>
        <mxCell id="1jTBWW4NoK1_gVK3uimr-110" value="" style="group" vertex="1" connectable="0" parent="1">
          <mxGeometry x="500" y="480" width="230" height="150" as="geometry" />
        </mxCell>
        <mxCell id="1jTBWW4NoK1_gVK3uimr-111" value="" style="rounded=0;whiteSpace=wrap;html=1;fillColor=#0000FF;strokeColor=#9999FF;align=left;fontColor=#CCCCFF;container=0;" vertex="1" parent="1jTBWW4NoK1_gVK3uimr-110">
          <mxGeometry y="40" width="230" height="50" as="geometry" />
        </mxCell>
        <mxCell id="1jTBWW4NoK1_gVK3uimr-112" value="&lt;span style=&quot;background-color: rgb(0, 0, 255);&quot;&gt;+Add(item: Menu): void&lt;/span&gt;&lt;div&gt;&lt;span style=&quot;background-color: rgb(0, 0, 255);&quot;&gt;+Add(item: Menu, quantity: int): void&lt;br&gt;&lt;/span&gt;&lt;/div&gt;&lt;div&gt;&lt;span style=&quot;background-color: rgb(0, 0, 255);&quot;&gt;+Remove:(item: Menu)&lt;/span&gt;&lt;/div&gt;&lt;div&gt;&lt;div&gt;&lt;span style=&quot;background-color: rgb(0, 0, 255);&quot;&gt;+Remove:(item: Menu, int quantity)&lt;/span&gt;&lt;/div&gt;&lt;/div&gt;&lt;div&gt;&lt;br&gt;&lt;/div&gt;" style="rounded=0;whiteSpace=wrap;html=1;fillColor=#0000FF;strokeColor=#9999FF;align=left;fontColor=#CCCCFF;container=0;" vertex="1" parent="1jTBWW4NoK1_gVK3uimr-110">
          <mxGeometry y="70" width="230" height="80" as="geometry" />
        </mxCell>
        <mxCell id="1jTBWW4NoK1_gVK3uimr-113" value="&amp;lt;&amp;lt;&lt;i style=&quot;font-weight: normal;&quot;&gt;interface&lt;/i&gt;&amp;gt;&amp;gt;&lt;div&gt;IOrder&lt;/div&gt;" style="rounded=0;whiteSpace=wrap;html=1;fillColor=#3333FF;strokeColor=#9999FF;align=center;fontStyle=1;fontColor=#CCCCFF;container=0;" vertex="1" parent="1jTBWW4NoK1_gVK3uimr-110">
          <mxGeometry width="230" height="40" as="geometry" />
        </mxCell>
        <mxCell id="1jTBWW4NoK1_gVK3uimr-114" value="" style="group" vertex="1" connectable="0" parent="1">
          <mxGeometry x="700" width="230" height="325" as="geometry" />
        </mxCell>
        <mxCell id="1jTBWW4NoK1_gVK3uimr-115" value="-items: List&amp;lt;MenuItemsXml&amp;gt;&lt;div&gt;menuItems&lt;/div&gt;&lt;div&gt;totalCost&lt;/div&gt;" style="rounded=0;whiteSpace=wrap;html=1;fillColor=#0000FF;strokeColor=#9999FF;align=left;fontColor=#CCCCFF;container=0;" vertex="1" parent="1jTBWW4NoK1_gVK3uimr-114">
          <mxGeometry y="30" width="230" height="60" as="geometry" />
        </mxCell>
        <mxCell id="1jTBWW4NoK1_gVK3uimr-116" value="+Items()&lt;div&gt;+TotalCost()&lt;/div&gt;&lt;div&gt;+XmlItems()&lt;/div&gt;&lt;div&gt;Add()&lt;/div&gt;&lt;div&gt;GetItems()&lt;/div&gt;&lt;div&gt;MakeOrder&lt;/div&gt;&lt;div&gt;Order&lt;/div&gt;&lt;div&gt;Removw&lt;/div&gt;&lt;div&gt;+ToString(): string&lt;/div&gt;" style="rounded=0;whiteSpace=wrap;html=1;fillColor=#0000FF;strokeColor=#9999FF;align=left;fontColor=#CCCCFF;container=0;" vertex="1" parent="1jTBWW4NoK1_gVK3uimr-114">
          <mxGeometry y="90" width="230" height="235" as="geometry" />
        </mxCell>
        <mxCell id="1jTBWW4NoK1_gVK3uimr-117" value="Order" style="rounded=0;whiteSpace=wrap;html=1;fillColor=#3333FF;strokeColor=#9999FF;align=center;fontStyle=1;fontColor=#CCCCFF;container=0;" vertex="1" parent="1jTBWW4NoK1_gVK3uimr-114">
          <mxGeometry width="230" height="30" as="geometry" />
        </mxCell>
        <mxCell id="1jTBWW4NoK1_gVK3uimr-120" style="edgeStyle=orthogonalEdgeStyle;rounded=0;orthogonalLoop=1;jettySize=auto;html=1;exitX=0.25;exitY=1;exitDx=0;exitDy=0;entryX=1;entryY=0.25;entryDx=0;entryDy=0;strokeColor=#CCCCFF;endArrow=block;endFill=0;dashed=1;" edge="1" parent="1" source="1jTBWW4NoK1_gVK3uimr-116" target="1jTBWW4NoK1_gVK3uimr-112">
          <mxGeometry relative="1" as="geometry">
            <mxPoint x="720" y="660" as="targetPoint" />
          </mxGeometry>
        </mxCell>
        <mxCell id="1jTBWW4NoK1_gVK3uimr-126" value="" style="edgeStyle=orthogonalEdgeStyle;rounded=0;orthogonalLoop=1;jettySize=auto;html=1;" edge="1" parent="1" source="1jTBWW4NoK1_gVK3uimr-2" target="1jTBWW4NoK1_gVK3uimr-67">
          <mxGeometry relative="1" as="geometry" />
        </mxCell>
        <mxCell id="1jTBWW4NoK1_gVK3uimr-127" value="" style="group" vertex="1" connectable="0" parent="1">
          <mxGeometry x="-220" y="-170" width="230" height="150" as="geometry" />
        </mxCell>
        <mxCell id="1jTBWW4NoK1_gVK3uimr-122" value="" style="rounded=0;whiteSpace=wrap;html=1;fillColor=#0000FF;strokeColor=#9999FF;align=left;fontColor=#CCCCFF;container=0;" vertex="1" parent="1jTBWW4NoK1_gVK3uimr-127">
          <mxGeometry y="30" width="230" height="30" as="geometry" />
        </mxCell>
        <mxCell id="1jTBWW4NoK1_gVK3uimr-123" value="+Main():Void" style="rounded=0;whiteSpace=wrap;html=1;fillColor=#0000FF;strokeColor=#9999FF;align=left;fontColor=#CCCCFF;container=0;" vertex="1" parent="1jTBWW4NoK1_gVK3uimr-127">
          <mxGeometry y="60" width="230" height="90" as="geometry" />
        </mxCell>
        <mxCell id="1jTBWW4NoK1_gVK3uimr-124" value="Program" style="rounded=0;whiteSpace=wrap;html=1;fillColor=#3333FF;strokeColor=#9999FF;align=center;fontStyle=1;fontColor=#CCCCFF;container=0;" vertex="1" parent="1jTBWW4NoK1_gVK3uimr-127">
          <mxGeometry width="230" height="30" as="geometry" />
        </mxCell>
        <mxCell id="1jTBWW4NoK1_gVK3uimr-128" style="edgeStyle=orthogonalEdgeStyle;rounded=0;orthogonalLoop=1;jettySize=auto;html=1;exitX=0.5;exitY=0;exitDx=0;exitDy=0;entryX=1;entryY=0.25;entryDx=0;entryDy=0;endArrow=diamondThin;endFill=0;strokeColor=#CCCCFF;endSize=10;startSize=10;" edge="1" parent="1" source="1jTBWW4NoK1_gVK3uimr-58" target="1jTBWW4NoK1_gVK3uimr-123">
          <mxGeometry relative="1" as="geometry" />
        </mxCell>
        <mxCell id="1jTBWW4NoK1_gVK3uimr-129" value="" style="group;fontColor=#CCCCFF;" vertex="1" connectable="0" parent="1">
          <mxGeometry x="820" y="360" width="210" height="170" as="geometry" />
        </mxCell>
        <mxCell id="1jTBWW4NoK1_gVK3uimr-130" value="-menuName: string&lt;div&gt;-quantity: int&lt;/div&gt;" style="rounded=0;whiteSpace=wrap;html=1;fillColor=#0000FF;strokeColor=#9999FF;align=left;container=0;fontColor=#CCCCFF;" vertex="1" parent="1jTBWW4NoK1_gVK3uimr-129">
          <mxGeometry y="28.333333333333332" width="210.00000000000003" height="56.666666666666664" as="geometry" />
        </mxCell>
        <mxCell id="1jTBWW4NoK1_gVK3uimr-131" value="+MenuName(): string&lt;div&gt;+Quantity(): int&lt;/div&gt;" style="rounded=0;whiteSpace=wrap;html=1;fillColor=#0000FF;strokeColor=#9999FF;align=left;container=0;fontColor=#CCCCFF;" vertex="1" parent="1jTBWW4NoK1_gVK3uimr-129">
          <mxGeometry y="85" width="210.00000000000003" height="85" as="geometry" />
        </mxCell>
        <mxCell id="1jTBWW4NoK1_gVK3uimr-132" value="&lt;b&gt;MenuItemXml&lt;/b&gt;" style="rounded=0;whiteSpace=wrap;html=1;fillColor=#3333FF;strokeColor=#9999FF;align=center;container=0;fontColor=#CCCCFF;" vertex="1" parent="1jTBWW4NoK1_gVK3uimr-129">
          <mxGeometry width="210.00000000000003" height="28.333333333333332" as="geometry" />
        </mxCell>
        <mxCell id="1jTBWW4NoK1_gVK3uimr-133" style="edgeStyle=orthogonalEdgeStyle;rounded=0;orthogonalLoop=1;jettySize=auto;html=1;exitX=0.75;exitY=0;exitDx=0;exitDy=0;entryX=0.996;entryY=0.804;entryDx=0;entryDy=0;entryPerimeter=0;endArrow=diamondThin;endFill=1;strokeColor=#CCCCFF;endSize=10;startSize=10;" edge="1" parent="1" source="1jTBWW4NoK1_gVK3uimr-132" target="1jTBWW4NoK1_gVK3uimr-116">
          <mxGeometry relative="1" as="geometry" />
        </mxCell>
        <mxCell id="1jTBWW4NoK1_gVK3uimr-136" style="edgeStyle=orthogonalEdgeStyle;rounded=0;orthogonalLoop=1;jettySize=auto;html=1;exitX=0;exitY=0.75;exitDx=0;exitDy=0;entryX=1;entryY=0.25;entryDx=0;entryDy=0;strokeColor=#CCCCFF;endSize=10;startSize=10;endArrow=diamondThin;endFill=1;" edge="1" parent="1" source="1jTBWW4NoK1_gVK3uimr-116" target="1jTBWW4NoK1_gVK3uimr-95">
          <mxGeometry relative="1" as="geometry">
            <Array as="points">
              <mxPoint x="450" y="266" />
              <mxPoint x="450" y="358" />
            </Array>
          </mxGeometry>
        </mxCell>
        <mxCell id="1jTBWW4NoK1_gVK3uimr-137" style="edgeStyle=orthogonalEdgeStyle;rounded=0;orthogonalLoop=1;jettySize=auto;html=1;exitX=0;exitY=0.75;exitDx=0;exitDy=0;entryX=1;entryY=0.75;entryDx=0;entryDy=0;endArrow=diamondThin;endFill=1;strokeColor=#CCCCFF;" edge="1" parent="1" source="1jTBWW4NoK1_gVK3uimr-116" target="1jTBWW4NoK1_gVK3uimr-4">
          <mxGeometry relative="1" as="geometry">
            <Array as="points">
              <mxPoint x="-60" y="266" />
              <mxPoint x="-60" y="198" />
            </Array>
          </mxGeometry>
        </mxCell>
        <mxCell id="1jTBWW4NoK1_gVK3uimr-140" style="edgeStyle=orthogonalEdgeStyle;rounded=0;orthogonalLoop=1;jettySize=auto;html=1;exitX=1;exitY=0.75;exitDx=0;exitDy=0;entryX=0.25;entryY=0;entryDx=0;entryDy=0;dashed=1;strokeColor=#CCCCFF;" edge="1" parent="1" source="1jTBWW4NoK1_gVK3uimr-122" target="1jTBWW4NoK1_gVK3uimr-117">
          <mxGeometry relative="1" as="geometry" />
        </mxCell>
        <mxCell id="1jTBWW4NoK1_gVK3uimr-141" style="edgeStyle=orthogonalEdgeStyle;rounded=0;orthogonalLoop=1;jettySize=auto;html=1;exitX=1;exitY=0;exitDx=0;exitDy=0;entryX=0.536;entryY=-0.176;entryDx=0;entryDy=0;entryPerimeter=0;dashed=1;strokeColor=#CCCCFF;" edge="1" parent="1" source="1jTBWW4NoK1_gVK3uimr-123" target="1jTBWW4NoK1_gVK3uimr-91">
          <mxGeometry relative="1" as="geometry">
            <Array as="points">
              <mxPoint x="523" y="-110" />
            </Array>
          </mxGeometry>
        </mxCell>
      </root>
    </mxGraphModel>
  </diagram>
</mxfile>
